<!DOCTYPE svg PUBLIC "-//W3C//DTD SVG 1.1//EN" "http://www.w3.org/Graphics/SVG/1.1/DTD/svg11.dtd">
<!-- Uploaded to: SVG Repo, www.svgrepo.com, Transformed by: SVG Repo Mixer Tools -->
<svg width="220px" height="220px" viewBox="-76.8 -76.8 665.60 665.60" version="1.1" xml:space="preserve" xmlns="http://www.w3.org/2000/svg" xmlns:xlink="http://www.w3.org/1999/xlink" fill="#E9573F" stroke="#E9573F">
<g id="SVGRepo_bgCarrier" stroke-width="0" transform="translate(12.800000000000011,12.800000000000011), scale(0.95)">
<path transform="translate(-76.8, -76.8), scale(20.8)" d="M16,28.75795700276891C18.364864643856077,28.780869585979,20.188148063250406,26.87865981682477,22.269002439545915,25.754758204190587C24.54732158373055,24.524202818184662,27.562159721677006,24.120028505279905,28.798911535666036,21.845067048159972C30.042654189917663,19.557246186290925,28.729358740981255,16.7931928727642,28.55324454158233,14.195115915709582C28.360240744845186,11.347879755092002,29.5343786886915,8.04751512126473,27.71461191441604,5.849230993330771C25.896497163979788,3.652942515518595,22.467808094769467,4.062291987829877,19.678019600007175,3.4738155838710245C17.11963152473526,2.9341506532521504,14.464647623457253,1.5437009339434058,12.0491896786709,2.5447757053775284C9.662432401534758,3.5339556250010635,9.059932350434257,6.5685989003165,7.4111818408005306,8.557746700338228C5.810640233862367,10.48873249696525,3.2053296664801785,11.651427515629635,2.5047964901404605,14.059682662237417C1.7747866013735445,16.56927126000134,2.2041190800292503,19.453068480473277,3.5989036432560635,21.66339094335248C4.937149646603531,23.784116451823863,7.631943428455719,24.388794355419492,9.808583378810194,25.634032314316322C11.856541877411491,26.805652664429065,13.640698040269998,28.735098315016746,16,28.75795700276891" fill="#0CA34D" strokewidth="0"/>
</g>
<g id="SVGRepo_tracerCarrier" stroke-linecap="round" stroke-linejoin="round"/>
<g id="SVGRepo_iconCarrier"> <g id="_x35_04_x2C__math__x2C__formula__x2C__math_formula_x2C__education"> <g> <path d="M181.25,189.31l187.29,237.24C334.06,451.38,291.74,466,246,466c-115.98,0-210-94.02-210-210 c0-63.42,28.11-120.27,72.55-158.77L181.25,189.31z" style="fill:#022F40;"/> <path d="M108.55,115.896l72.7,92.08l177.694,225.086c3.261-2.086,6.462-4.256,9.596-6.513L181.25,189.31 l-72.7-92.08C64.11,135.73,36,192.58,36,256c0,3.155,0.083,6.291,0.22,9.412C38.809,205.733,66.284,152.513,108.55,115.896z" style="fill:#2D2D2D;"/> <path d="M181.25,189.31l-72.7-92.08C145.38,65.31,193.44,46,246,46c115.98,0,210,94.02,210,210 c0,70.24-34.49,132.43-87.46,170.55L181.25,189.31z" style="fill:#ffffff;"/> <path d="M197.583,194.31l-72.7-92.08C161.713,70.31,209.773,51,262.333,51 c18.397,0,36.238,2.374,53.243,6.817C293.8,50.172,270.389,46,246,46c-52.56,0-100.62,19.31-137.45,51.23l72.7,92.08 l187.29,237.24c2.633-1.895,5.207-3.866,7.746-5.878L197.583,194.31z" style="fill:#ffffff;"/> <path d="M396,247.51v9.07h-34.79v-6.68l6.34-5.51c10.72-9.22,15.92-14.52,16.07-20.03c0-3.85-2.41-6.9-8.07-6.9 c-4.22,0-7.92,2.04-10.49,3.92l-3.239-7.91c3.699-2.68,9.43-4.86,16.069-4.86c11.091,0,17.2,6.24,17.2,14.81 c0,7.91-5.96,14.22-13.05,20.31l-4.53,3.63v0.15H396z"/> <path d="M356.09,209.05l-2.34,8.78c-2.34-0.95-5.58-1.82-9.66-1.82c-9.13,0-16.22,5.3-16.22,16.19c0,9.79,6.03,15.96,16.3,15.96 c3.47,0,7.32-0.73,9.58-1.6l1.73,8.64c-2.11,1.02-6.86,2.1-13.051,2.1c-17.58,0-26.64-10.52-26.64-24.45 c0-16.69,12.38-25.98,27.77-25.98C349.52,206.87,354.05,208.03,356.09,209.05z"/> <path d="M306.52,207.67l2.79,48.91H298.07l-0.761-18.72c-0.22-5.88-0.449-12.99-0.449-20.11h-0.23 c-1.58,6.25-3.689,13.21-5.66,18.95l-6.18,19.08h-8.98l-5.439-18.94c-1.66-5.73-3.39-12.7-4.601-19.09h-0.149 c-0.3,6.61-0.53,14.16-0.91,20.25l-0.9,18.58h-10.64l3.25-48.91h15.311L276.71,224c1.59,5.66,3.17,11.75,4.3,17.48h0.23 c1.43-5.66,3.17-12.11,4.83-17.56l5.43-16.25H306.52z"/> <path d="M246,471c-57.429,0-111.42-22.364-152.028-62.972C53.364,367.42,31,313.429,31,256 c0-62.408,27.073-121.655,74.276-162.549C144.302,59.627,194.279,41,246,41c57.429,0,111.42,22.364,152.028,62.972 C438.636,144.58,461,198.571,461,256c0,34.675-8.45,69.13-24.438,99.641c-15.473,29.528-37.984,55.452-65.102,74.968 C334.767,457.032,291.383,471,246,471z M246,51c-49.315,0-96.966,17.76-134.175,50.008C66.814,140.002,41,196.495,41,256 c0,113.037,91.962,205,205,205c43.271,0,84.636-13.315,119.618-38.508C419.082,384.017,451,321.776,451,256 C451,142.962,359.037,51,246,51z"/> <path d="M135.999,321c-1.64,0-3.192-0.808-4.131-2.185l-40-58.7c-1.555-2.282-0.966-5.392,1.316-6.947 c2.281-1.556,5.392-0.966,6.947,1.316l34.465,50.578l46.694-130.743c0.71-1.99,2.596-3.319,4.709-3.319h180c2.762,0,5,2.239,5,5 s-2.238,5-5,5H189.524l-48.816,136.682c-0.633,1.771-2.207,3.038-4.072,3.277C136.423,320.986,136.21,321,135.999,321z"/> <path d="M376.003,441c-1.478,0-2.94-0.652-3.928-1.902l-300-380c-1.711-2.167-1.341-5.312,0.826-7.022 c2.167-1.712,5.311-1.341,7.022,0.826l300,380c1.711,2.167,1.341,5.312-0.827,7.022C378.181,440.648,377.088,441,376.003,441z"/> <path d="M446,471H36c-2.761,0-5-2.238-5-5V56c0-2.761,2.239-5,5-5s5,2.239,5,5v405h405c2.762,0,5,2.238,5,5S448.762,471,446,471z"/> </g> </g> <g id="Layer_1"/> </g>
</svg>